<svg xmlns="http://www.w3.org/2000/svg" viewBox="0 0 1000 500" preserveAspectRatio="xMidYMid meet" fill="#b8954a"><circle cx="302.5" cy="401.9" r="1.2"/><circle cx="311.7" cy="401.9" r="1.2"/><circle cx="293.3" cy="392.8" r="1.2"/><circle cx="302.5" cy="392.8" r="1.2"/><circle cx="293.3" cy="383.6" r="1.2"/><circle cx="302.5" cy="383.6" r="1.2"/><circle cx="311.7" cy="383.6" r="1.2"/><circle cx="293.3" cy="374.4" r="1.2"/><circle cx="302.5" cy="374.4" r="1.2"/><circle cx="311.7" cy="374.4" r="1.2"/><circle cx="971.7" cy="374.4" r="1.2"/><circle cx="302.5" cy="365.3" r="1.2"/><circle cx="311.7" cy="365.3" r="1.2"/><circle cx="907.5" cy="365.3" r="1.2"/><circle cx="980.8" cy="365.3" r="1.2"/><circle cx="302.5" cy="356.1" r="1.2"/><circle cx="311.7" cy="356.1" r="1.2"/><circle cx="320.8" cy="356.1" r="1.2"/><circle cx="330.0" cy="356.1" r="1.2"/><circle cx="339.2" cy="356.1" r="1.2"/><circle cx="898.3" cy="356.1" r="1.2"/><circle cx="907.5" cy="356.1" r="1.2"/><circle cx="990.0" cy="356.1" r="1.2"/><circle cx="302.5" cy="346.9" r="1.2"/><circle cx="311.7" cy="346.9" r="1.2"/><circle cx="320.8" cy="346.9" r="1.2"/><circle cx="330.0" cy="346.9" r="1.2"/><circle cx="339.2" cy="346.9" r="1.2"/><circle cx="825.0" cy="346.9" r="1.2"/><circle cx="889.2" cy="346.9" r="1.2"/><circle cx="898.3" cy="346.9" r="1.2"/><circle cx="907.5" cy="346.9" r="1.2"/><circle cx="916.7" cy="346.9" r="1.2"/><circle cx="980.8" cy="346.9" r="1.2"/><circle cx="302.5" cy="337.8" r="1.2"/><circle cx="311.7" cy="337.8" r="1.2"/><circle cx="320.8" cy="337.8" r="1.2"/><circle cx="330.0" cy="337.8" r="1.2"/><circle cx="339.2" cy="337.8" r="1.2"/><circle cx="348.3" cy="337.8" r="1.2"/><circle cx="559.2" cy="337.8" r="1.2"/><circle cx="568.3" cy="337.8" r="1.2"/><circle cx="577.5" cy="337.8" r="1.2"/><circle cx="825.0" cy="337.8" r="1.2"/><circle cx="834.2" cy="337.8" r="1.2"/><circle cx="843.3" cy="337.8" r="1.2"/><circle cx="852.5" cy="337.8" r="1.2"/><circle cx="870.8" cy="337.8" r="1.2"/><circle cx="880.0" cy="337.8" r="1.2"/><circle cx="889.2" cy="337.8" r="1.2"/><circle cx="898.3" cy="337.8" r="1.2"/><circle cx="907.5" cy="337.8" r="1.2"/><circle cx="916.7" cy="337.8" r="1.2"/><circle cx="302.5" cy="328.6" r="1.2"/><circle cx="311.7" cy="328.6" r="1.2"/><circle cx="320.8" cy="328.6" r="1.2"/><circle cx="330.0" cy="328.6" r="1.2"/><circle cx="339.2" cy="328.6" r="1.2"/><circle cx="348.3" cy="328.6" r="1.2"/><circle cx="357.5" cy="328.6" r="1.2"/><circle cx="550.0" cy="328.6" r="1.2"/><circle cx="559.2" cy="328.6" r="1.2"/><circle cx="568.3" cy="328.6" r="1.2"/><circle cx="577.5" cy="328.6" r="1.2"/><circle cx="586.7" cy="328.6" r="1.2"/><circle cx="825.0" cy="328.6" r="1.2"/><circle cx="834.2" cy="328.6" r="1.2"/><circle cx="843.3" cy="328.6" r="1.2"/><circle cx="852.5" cy="328.6" r="1.2"/><circle cx="861.7" cy="328.6" r="1.2"/><circle cx="870.8" cy="328.6" r="1.2"/><circle cx="880.0" cy="328.6" r="1.2"/><circle cx="889.2" cy="328.6" r="1.2"/><circle cx="898.3" cy="328.6" r="1.2"/><circle cx="907.5" cy="328.6" r="1.2"/><circle cx="916.7" cy="328.6" r="1.2"/><circle cx="925.8" cy="328.6" r="1.2"/><circle cx="311.7" cy="319.4" r="1.2"/><circle cx="320.8" cy="319.4" r="1.2"/><circle cx="330.0" cy="319.4" r="1.2"/><circle cx="339.2" cy="319.4" r="1.2"/><circle cx="348.3" cy="319.4" r="1.2"/><circle cx="357.5" cy="319.4" r="1.2"/><circle cx="366.7" cy="319.4" r="1.2"/><circle cx="540.8" cy="319.4" r="1.2"/><circle cx="550.0" cy="319.4" r="1.2"/><circle cx="559.2" cy="319.4" r="1.2"/><circle cx="568.3" cy="319.4" r="1.2"/><circle cx="577.5" cy="319.4" r="1.2"/><circle cx="586.7" cy="319.4" r="1.2"/><circle cx="623.3" cy="319.4" r="1.2"/><circle cx="825.0" cy="319.4" r="1.2"/><circle cx="834.2" cy="319.4" r="1.2"/><circle cx="843.3" cy="319.4" r="1.2"/><circle cx="852.5" cy="319.4" r="1.2"/><circle cx="861.7" cy="319.4" r="1.2"/><circle cx="870.8" cy="319.4" r="1.2"/><circle cx="880.0" cy="319.4" r="1.2"/><circle cx="889.2" cy="319.4" r="1.2"/><circle cx="898.3" cy="319.4" r="1.2"/><circle cx="907.5" cy="319.4" r="1.2"/><circle cx="916.7" cy="319.4" r="1.2"/><circle cx="311.7" cy="310.3" r="1.2"/><circle cx="320.8" cy="310.3" r="1.2"/><circle cx="330.0" cy="310.3" r="1.2"/><circle cx="339.2" cy="310.3" r="1.2"/><circle cx="348.3" cy="310.3" r="1.2"/><circle cx="357.5" cy="310.3" r="1.2"/><circle cx="366.7" cy="310.3" r="1.2"/><circle cx="375.8" cy="310.3" r="1.2"/><circle cx="385.0" cy="310.3" r="1.2"/><circle cx="540.8" cy="310.3" r="1.2"/><circle cx="550.0" cy="310.3" r="1.2"/><circle cx="559.2" cy="310.3" r="1.2"/><circle cx="568.3" cy="310.3" r="1.2"/><circle cx="577.5" cy="310.3" r="1.2"/><circle cx="586.7" cy="310.3" r="1.2"/><circle cx="595.8" cy="310.3" r="1.2"/><circle cx="623.3" cy="310.3" r="1.2"/><circle cx="632.5" cy="310.3" r="1.2"/><circle cx="825.0" cy="310.3" r="1.2"/><circle cx="834.2" cy="310.3" r="1.2"/><circle cx="843.3" cy="310.3" r="1.2"/><circle cx="852.5" cy="310.3" r="1.2"/><circle cx="861.7" cy="310.3" r="1.2"/><circle cx="870.8" cy="310.3" r="1.2"/><circle cx="880.0" cy="310.3" r="1.2"/><circle cx="889.2" cy="310.3" r="1.2"/><circle cx="898.3" cy="310.3" r="1.2"/><circle cx="907.5" cy="310.3" r="1.2"/><circle cx="962.5" cy="310.3" r="1.2"/><circle cx="311.7" cy="301.1" r="1.2"/><circle cx="320.8" cy="301.1" r="1.2"/><circle cx="330.0" cy="301.1" r="1.2"/><circle cx="339.2" cy="301.1" r="1.2"/><circle cx="348.3" cy="301.1" r="1.2"/><circle cx="357.5" cy="301.1" r="1.2"/><circle cx="366.7" cy="301.1" r="1.2"/><circle cx="375.8" cy="301.1" r="1.2"/><circle cx="385.0" cy="301.1" r="1.2"/><circle cx="540.8" cy="301.1" r="1.2"/><circle cx="550.0" cy="301.1" r="1.2"/><circle cx="559.2" cy="301.1" r="1.2"/><circle cx="568.3" cy="301.1" r="1.2"/><circle cx="577.5" cy="301.1" r="1.2"/><circle cx="586.7" cy="301.1" r="1.2"/><circle cx="595.8" cy="301.1" r="1.2"/><circle cx="623.3" cy="301.1" r="1.2"/><circle cx="632.5" cy="301.1" r="1.2"/><circle cx="843.3" cy="301.1" r="1.2"/><circle cx="852.5" cy="301.1" r="1.2"/><circle cx="861.7" cy="301.1" r="1.2"/><circle cx="870.8" cy="301.1" r="1.2"/><circle cx="880.0" cy="301.1" r="1.2"/><circle cx="889.2" cy="301.1" r="1.2"/><circle cx="898.3" cy="301.1" r="1.2"/><circle cx="293.3" cy="291.9" r="1.2"/><circle cx="302.5" cy="291.9" r="1.2"/><circle cx="311.7" cy="291.9" r="1.2"/><circle cx="320.8" cy="291.9" r="1.2"/><circle cx="330.0" cy="291.9" r="1.2"/><circle cx="339.2" cy="291.9" r="1.2"/><circle cx="348.3" cy="291.9" r="1.2"/><circle cx="357.5" cy="291.9" r="1.2"/><circle cx="366.7" cy="291.9" r="1.2"/><circle cx="375.8" cy="291.9" r="1.2"/><circle cx="385.0" cy="291.9" r="1.2"/><circle cx="540.8" cy="291.9" r="1.2"/><circle cx="550.0" cy="291.9" r="1.2"/><circle cx="559.2" cy="291.9" r="1.2"/><circle cx="568.3" cy="291.9" r="1.2"/><circle cx="577.5" cy="291.9" r="1.2"/><circle cx="586.7" cy="291.9" r="1.2"/><circle cx="595.8" cy="291.9" r="1.2"/><circle cx="605.0" cy="291.9" r="1.2"/><circle cx="632.5" cy="291.9" r="1.2"/><circle cx="852.5" cy="291.9" r="1.2"/><circle cx="861.7" cy="291.9" r="1.2"/><circle cx="870.8" cy="291.9" r="1.2"/><circle cx="898.3" cy="291.9" r="1.2"/><circle cx="293.3" cy="282.8" r="1.2"/><circle cx="302.5" cy="282.8" r="1.2"/><circle cx="311.7" cy="282.8" r="1.2"/><circle cx="320.8" cy="282.8" r="1.2"/><circle cx="330.0" cy="282.8" r="1.2"/><circle cx="339.2" cy="282.8" r="1.2"/><circle cx="348.3" cy="282.8" r="1.2"/><circle cx="357.5" cy="282.8" r="1.2"/><circle cx="366.7" cy="282.8" r="1.2"/><circle cx="375.8" cy="282.8" r="1.2"/><circle cx="385.0" cy="282.8" r="1.2"/><circle cx="394.2" cy="282.8" r="1.2"/><circle cx="540.8" cy="282.8" r="1.2"/><circle cx="550.0" cy="282.8" r="1.2"/><circle cx="559.2" cy="282.8" r="1.2"/><circle cx="568.3" cy="282.8" r="1.2"/><circle cx="577.5" cy="282.8" r="1.2"/><circle cx="586.7" cy="282.8" r="1.2"/><circle cx="595.8" cy="282.8" r="1.2"/><circle cx="605.0" cy="282.8" r="1.2"/><circle cx="870.8" cy="282.8" r="1.2"/><circle cx="284.2" cy="273.6" r="1.2"/><circle cx="293.3" cy="273.6" r="1.2"/><circle cx="302.5" cy="273.6" r="1.2"/><circle cx="311.7" cy="273.6" r="1.2"/><circle cx="320.8" cy="273.6" r="1.2"/><circle cx="330.0" cy="273.6" r="1.2"/><circle cx="339.2" cy="273.6" r="1.2"/><circle cx="348.3" cy="273.6" r="1.2"/><circle cx="357.5" cy="273.6" r="1.2"/><circle cx="366.7" cy="273.6" r="1.2"/><circle cx="375.8" cy="273.6" r="1.2"/><circle cx="385.0" cy="273.6" r="1.2"/><circle cx="394.2" cy="273.6" r="1.2"/><circle cx="540.8" cy="273.6" r="1.2"/><circle cx="550.0" cy="273.6" r="1.2"/><circle cx="559.2" cy="273.6" r="1.2"/><circle cx="568.3" cy="273.6" r="1.2"/><circle cx="577.5" cy="273.6" r="1.2"/><circle cx="586.7" cy="273.6" r="1.2"/><circle cx="595.8" cy="273.6" r="1.2"/><circle cx="605.0" cy="273.6" r="1.2"/><circle cx="834.2" cy="273.6" r="1.2"/><circle cx="852.5" cy="273.6" r="1.2"/><circle cx="907.5" cy="273.6" r="1.2"/><circle cx="944.2" cy="273.6" r="1.2"/><circle cx="275.0" cy="264.4" r="1.2"/><circle cx="284.2" cy="264.4" r="1.2"/><circle cx="293.3" cy="264.4" r="1.2"/><circle cx="302.5" cy="264.4" r="1.2"/><circle cx="311.7" cy="264.4" r="1.2"/><circle cx="320.8" cy="264.4" r="1.2"/><circle cx="330.0" cy="264.4" r="1.2"/><circle cx="339.2" cy="264.4" r="1.2"/><circle cx="348.3" cy="264.4" r="1.2"/><circle cx="357.5" cy="264.4" r="1.2"/><circle cx="366.7" cy="264.4" r="1.2"/><circle cx="375.8" cy="264.4" r="1.2"/><circle cx="385.0" cy="264.4" r="1.2"/><circle cx="394.2" cy="264.4" r="1.2"/><circle cx="540.8" cy="264.4" r="1.2"/><circle cx="550.0" cy="264.4" r="1.2"/><circle cx="559.2" cy="264.4" r="1.2"/><circle cx="568.3" cy="264.4" r="1.2"/><circle cx="577.5" cy="264.4" r="1.2"/><circle cx="586.7" cy="264.4" r="1.2"/><circle cx="595.8" cy="264.4" r="1.2"/><circle cx="605.0" cy="264.4" r="1.2"/><circle cx="834.2" cy="264.4" r="1.2"/><circle cx="889.2" cy="264.4" r="1.2"/><circle cx="898.3" cy="264.4" r="1.2"/><circle cx="916.7" cy="264.4" r="1.2"/><circle cx="284.2" cy="255.3" r="1.2"/><circle cx="293.3" cy="255.3" r="1.2"/><circle cx="302.5" cy="255.3" r="1.2"/><circle cx="311.7" cy="255.3" r="1.2"/><circle cx="320.8" cy="255.3" r="1.2"/><circle cx="330.0" cy="255.3" r="1.2"/><circle cx="339.2" cy="255.3" r="1.2"/><circle cx="348.3" cy="255.3" r="1.2"/><circle cx="357.5" cy="255.3" r="1.2"/><circle cx="366.7" cy="255.3" r="1.2"/><circle cx="375.8" cy="255.3" r="1.2"/><circle cx="531.7" cy="255.3" r="1.2"/><circle cx="540.8" cy="255.3" r="1.2"/><circle cx="550.0" cy="255.3" r="1.2"/><circle cx="559.2" cy="255.3" r="1.2"/><circle cx="568.3" cy="255.3" r="1.2"/><circle cx="577.5" cy="255.3" r="1.2"/><circle cx="586.7" cy="255.3" r="1.2"/><circle cx="595.8" cy="255.3" r="1.2"/><circle cx="605.0" cy="255.3" r="1.2"/><circle cx="614.2" cy="255.3" r="1.2"/><circle cx="788.3" cy="255.3" r="1.2"/><circle cx="806.7" cy="255.3" r="1.2"/><circle cx="815.8" cy="255.3" r="1.2"/><circle cx="834.2" cy="255.3" r="1.2"/><circle cx="870.8" cy="255.3" r="1.2"/><circle cx="284.2" cy="246.1" r="1.2"/><circle cx="293.3" cy="246.1" r="1.2"/><circle cx="302.5" cy="246.1" r="1.2"/><circle cx="311.7" cy="246.1" r="1.2"/><circle cx="320.8" cy="246.1" r="1.2"/><circle cx="330.0" cy="246.1" r="1.2"/><circle cx="339.2" cy="246.1" r="1.2"/><circle cx="348.3" cy="246.1" r="1.2"/><circle cx="357.5" cy="246.1" r="1.2"/><circle cx="531.7" cy="246.1" r="1.2"/><circle cx="540.8" cy="246.1" r="1.2"/><circle cx="550.0" cy="246.1" r="1.2"/><circle cx="559.2" cy="246.1" r="1.2"/><circle cx="568.3" cy="246.1" r="1.2"/><circle cx="577.5" cy="246.1" r="1.2"/><circle cx="586.7" cy="246.1" r="1.2"/><circle cx="595.8" cy="246.1" r="1.2"/><circle cx="605.0" cy="246.1" r="1.2"/><circle cx="614.2" cy="246.1" r="1.2"/><circle cx="623.3" cy="246.1" r="1.2"/><circle cx="779.2" cy="246.1" r="1.2"/><circle cx="788.3" cy="246.1" r="1.2"/><circle cx="806.7" cy="246.1" r="1.2"/><circle cx="815.8" cy="246.1" r="1.2"/><circle cx="825.0" cy="246.1" r="1.2"/><circle cx="293.3" cy="236.9" r="1.2"/><circle cx="302.5" cy="236.9" r="1.2"/><circle cx="311.7" cy="236.9" r="1.2"/><circle cx="320.8" cy="236.9" r="1.2"/><circle cx="330.0" cy="236.9" r="1.2"/><circle cx="339.2" cy="236.9" r="1.2"/><circle cx="348.3" cy="236.9" r="1.2"/><circle cx="476.7" cy="236.9" r="1.2"/><circle cx="522.5" cy="236.9" r="1.2"/><circle cx="531.7" cy="236.9" r="1.2"/><circle cx="540.8" cy="236.9" r="1.2"/><circle cx="550.0" cy="236.9" r="1.2"/><circle cx="559.2" cy="236.9" r="1.2"/><circle cx="568.3" cy="236.9" r="1.2"/><circle cx="577.5" cy="236.9" r="1.2"/><circle cx="586.7" cy="236.9" r="1.2"/><circle cx="595.8" cy="236.9" r="1.2"/><circle cx="605.0" cy="236.9" r="1.2"/><circle cx="614.2" cy="236.9" r="1.2"/><circle cx="623.3" cy="236.9" r="1.2"/><circle cx="632.5" cy="236.9" r="1.2"/><circle cx="770.0" cy="236.9" r="1.2"/><circle cx="825.0" cy="236.9" r="1.2"/><circle cx="275.0" cy="227.8" r="1.2"/><circle cx="284.2" cy="227.8" r="1.2"/><circle cx="293.3" cy="227.8" r="1.2"/><circle cx="302.5" cy="227.8" r="1.2"/><circle cx="311.7" cy="227.8" r="1.2"/><circle cx="320.8" cy="227.8" r="1.2"/><circle cx="330.0" cy="227.8" r="1.2"/><circle cx="467.5" cy="227.8" r="1.2"/><circle cx="476.7" cy="227.8" r="1.2"/><circle cx="485.8" cy="227.8" r="1.2"/><circle cx="495.0" cy="227.8" r="1.2"/><circle cx="504.2" cy="227.8" r="1.2"/><circle cx="513.3" cy="227.8" r="1.2"/><circle cx="522.5" cy="227.8" r="1.2"/><circle cx="531.7" cy="227.8" r="1.2"/><circle cx="540.8" cy="227.8" r="1.2"/><circle cx="550.0" cy="227.8" r="1.2"/><circle cx="559.2" cy="227.8" r="1.2"/><circle cx="568.3" cy="227.8" r="1.2"/><circle cx="577.5" cy="227.8" r="1.2"/><circle cx="586.7" cy="227.8" r="1.2"/><circle cx="595.8" cy="227.8" r="1.2"/><circle cx="605.0" cy="227.8" r="1.2"/><circle cx="614.2" cy="227.8" r="1.2"/><circle cx="623.3" cy="227.8" r="1.2"/><circle cx="632.5" cy="227.8" r="1.2"/><circle cx="724.2" cy="227.8" r="1.2"/><circle cx="843.3" cy="227.8" r="1.2"/><circle cx="265.8" cy="218.6" r="1.2"/><circle cx="458.3" cy="218.6" r="1.2"/><circle cx="467.5" cy="218.6" r="1.2"/><circle cx="476.7" cy="218.6" r="1.2"/><circle cx="485.8" cy="218.6" r="1.2"/><circle cx="495.0" cy="218.6" r="1.2"/><circle cx="504.2" cy="218.6" r="1.2"/><circle cx="513.3" cy="218.6" r="1.2"/><circle cx="522.5" cy="218.6" r="1.2"/><circle cx="531.7" cy="218.6" r="1.2"/><circle cx="540.8" cy="218.6" r="1.2"/><circle cx="550.0" cy="218.6" r="1.2"/><circle cx="559.2" cy="218.6" r="1.2"/><circle cx="568.3" cy="218.6" r="1.2"/><circle cx="577.5" cy="218.6" r="1.2"/><circle cx="586.7" cy="218.6" r="1.2"/><circle cx="595.8" cy="218.6" r="1.2"/><circle cx="605.0" cy="218.6" r="1.2"/><circle cx="614.2" cy="218.6" r="1.2"/><circle cx="641.7" cy="218.6" r="1.2"/><circle cx="715.0" cy="218.6" r="1.2"/><circle cx="788.3" cy="218.6" r="1.2"/><circle cx="797.5" cy="218.6" r="1.2"/><circle cx="247.5" cy="209.4" r="1.2"/><circle cx="256.7" cy="209.4" r="1.2"/><circle cx="265.8" cy="209.4" r="1.2"/><circle cx="458.3" cy="209.4" r="1.2"/><circle cx="467.5" cy="209.4" r="1.2"/><circle cx="476.7" cy="209.4" r="1.2"/><circle cx="485.8" cy="209.4" r="1.2"/><circle cx="495.0" cy="209.4" r="1.2"/><circle cx="504.2" cy="209.4" r="1.2"/><circle cx="513.3" cy="209.4" r="1.2"/><circle cx="522.5" cy="209.4" r="1.2"/><circle cx="531.7" cy="209.4" r="1.2"/><circle cx="540.8" cy="209.4" r="1.2"/><circle cx="550.0" cy="209.4" r="1.2"/><circle cx="559.2" cy="209.4" r="1.2"/><circle cx="568.3" cy="209.4" r="1.2"/><circle cx="577.5" cy="209.4" r="1.2"/><circle cx="586.7" cy="209.4" r="1.2"/><circle cx="595.8" cy="209.4" r="1.2"/><circle cx="605.0" cy="209.4" r="1.2"/><circle cx="623.3" cy="209.4" r="1.2"/><circle cx="632.5" cy="209.4" r="1.2"/><circle cx="715.0" cy="209.4" r="1.2"/><circle cx="779.2" cy="209.4" r="1.2"/><circle cx="788.3" cy="209.4" r="1.2"/><circle cx="797.5" cy="209.4" r="1.2"/><circle cx="220.0" cy="200.3" r="1.2"/><circle cx="229.2" cy="200.3" r="1.2"/><circle cx="238.3" cy="200.3" r="1.2"/><circle cx="247.5" cy="200.3" r="1.2"/><circle cx="284.2" cy="200.3" r="1.2"/><circle cx="458.3" cy="200.3" r="1.2"/><circle cx="467.5" cy="200.3" r="1.2"/><circle cx="476.7" cy="200.3" r="1.2"/><circle cx="485.8" cy="200.3" r="1.2"/><circle cx="495.0" cy="200.3" r="1.2"/><circle cx="504.2" cy="200.3" r="1.2"/><circle cx="513.3" cy="200.3" r="1.2"/><circle cx="522.5" cy="200.3" r="1.2"/><circle cx="531.7" cy="200.3" r="1.2"/><circle cx="540.8" cy="200.3" r="1.2"/><circle cx="550.0" cy="200.3" r="1.2"/><circle cx="559.2" cy="200.3" r="1.2"/><circle cx="568.3" cy="200.3" r="1.2"/><circle cx="577.5" cy="200.3" r="1.2"/><circle cx="586.7" cy="200.3" r="1.2"/><circle cx="595.8" cy="200.3" r="1.2"/><circle cx="605.0" cy="200.3" r="1.2"/><circle cx="623.3" cy="200.3" r="1.2"/><circle cx="632.5" cy="200.3" r="1.2"/><circle cx="641.7" cy="200.3" r="1.2"/><circle cx="650.8" cy="200.3" r="1.2"/><circle cx="705.8" cy="200.3" r="1.2"/><circle cx="715.0" cy="200.3" r="1.2"/><circle cx="724.2" cy="200.3" r="1.2"/><circle cx="770.0" cy="200.3" r="1.2"/><circle cx="779.2" cy="200.3" r="1.2"/><circle cx="788.3" cy="200.3" r="1.2"/><circle cx="210.8" cy="191.1" r="1.2"/><circle cx="220.0" cy="191.1" r="1.2"/><circle cx="229.2" cy="191.1" r="1.2"/><circle cx="256.7" cy="191.1" r="1.2"/><circle cx="284.2" cy="191.1" r="1.2"/><circle cx="458.3" cy="191.1" r="1.2"/><circle cx="467.5" cy="191.1" r="1.2"/><circle cx="476.7" cy="191.1" r="1.2"/><circle cx="485.8" cy="191.1" r="1.2"/><circle cx="495.0" cy="191.1" r="1.2"/><circle cx="504.2" cy="191.1" r="1.2"/><circle cx="513.3" cy="191.1" r="1.2"/><circle cx="522.5" cy="191.1" r="1.2"/><circle cx="531.7" cy="191.1" r="1.2"/><circle cx="540.8" cy="191.1" r="1.2"/><circle cx="550.0" cy="191.1" r="1.2"/><circle cx="559.2" cy="191.1" r="1.2"/><circle cx="568.3" cy="191.1" r="1.2"/><circle cx="577.5" cy="191.1" r="1.2"/><circle cx="586.7" cy="191.1" r="1.2"/><circle cx="595.8" cy="191.1" r="1.2"/><circle cx="614.2" cy="191.1" r="1.2"/><circle cx="623.3" cy="191.1" r="1.2"/><circle cx="632.5" cy="191.1" r="1.2"/><circle cx="641.7" cy="191.1" r="1.2"/><circle cx="650.8" cy="191.1" r="1.2"/><circle cx="660.0" cy="191.1" r="1.2"/><circle cx="696.7" cy="191.1" r="1.2"/><circle cx="705.8" cy="191.1" r="1.2"/><circle cx="715.0" cy="191.1" r="1.2"/><circle cx="724.2" cy="191.1" r="1.2"/><circle cx="733.3" cy="191.1" r="1.2"/><circle cx="760.8" cy="191.1" r="1.2"/><circle cx="770.0" cy="191.1" r="1.2"/><circle cx="779.2" cy="191.1" r="1.2"/><circle cx="788.3" cy="191.1" r="1.2"/><circle cx="797.5" cy="191.1" r="1.2"/><circle cx="806.7" cy="191.1" r="1.2"/><circle cx="192.5" cy="181.9" r="1.2"/><circle cx="201.7" cy="181.9" r="1.2"/><circle cx="210.8" cy="181.9" r="1.2"/><circle cx="220.0" cy="181.9" r="1.2"/><circle cx="284.2" cy="181.9" r="1.2"/><circle cx="458.3" cy="181.9" r="1.2"/><circle cx="467.5" cy="181.9" r="1.2"/><circle cx="476.7" cy="181.9" r="1.2"/><circle cx="485.8" cy="181.9" r="1.2"/><circle cx="495.0" cy="181.9" r="1.2"/><circle cx="504.2" cy="181.9" r="1.2"/><circle cx="513.3" cy="181.9" r="1.2"/><circle cx="522.5" cy="181.9" r="1.2"/><circle cx="531.7" cy="181.9" r="1.2"/><circle cx="540.8" cy="181.9" r="1.2"/><circle cx="550.0" cy="181.9" r="1.2"/><circle cx="559.2" cy="181.9" r="1.2"/><circle cx="568.3" cy="181.9" r="1.2"/><circle cx="577.5" cy="181.9" r="1.2"/><circle cx="586.7" cy="181.9" r="1.2"/><circle cx="595.8" cy="181.9" r="1.2"/><circle cx="605.0" cy="181.9" r="1.2"/><circle cx="614.2" cy="181.9" r="1.2"/><circle cx="623.3" cy="181.9" r="1.2"/><circle cx="632.5" cy="181.9" r="1.2"/><circle cx="641.7" cy="181.9" r="1.2"/><circle cx="687.5" cy="181.9" r="1.2"/><circle cx="696.7" cy="181.9" r="1.2"/><circle cx="705.8" cy="181.9" r="1.2"/><circle cx="715.0" cy="181.9" r="1.2"/><circle cx="724.2" cy="181.9" r="1.2"/><circle cx="733.3" cy="181.9" r="1.2"/><circle cx="742.5" cy="181.9" r="1.2"/><circle cx="751.7" cy="181.9" r="1.2"/><circle cx="760.8" cy="181.9" r="1.2"/><circle cx="770.0" cy="181.9" r="1.2"/><circle cx="779.2" cy="181.9" r="1.2"/><circle cx="788.3" cy="181.9" r="1.2"/><circle cx="797.5" cy="181.9" r="1.2"/><circle cx="806.7" cy="181.9" r="1.2"/><circle cx="815.8" cy="181.9" r="1.2"/><circle cx="825.0" cy="181.9" r="1.2"/><circle cx="183.3" cy="172.8" r="1.2"/><circle cx="201.7" cy="172.8" r="1.2"/><circle cx="210.8" cy="172.8" r="1.2"/><circle cx="220.0" cy="172.8" r="1.2"/><circle cx="229.2" cy="172.8" r="1.2"/><circle cx="275.0" cy="172.8" r="1.2"/><circle cx="467.5" cy="172.8" r="1.2"/><circle cx="476.7" cy="172.8" r="1.2"/><circle cx="485.8" cy="172.8" r="1.2"/><circle cx="495.0" cy="172.8" r="1.2"/><circle cx="504.2" cy="172.8" r="1.2"/><circle cx="513.3" cy="172.8" r="1.2"/><circle cx="522.5" cy="172.8" r="1.2"/><circle cx="531.7" cy="172.8" r="1.2"/><circle cx="540.8" cy="172.8" r="1.2"/><circle cx="550.0" cy="172.8" r="1.2"/><circle cx="559.2" cy="172.8" r="1.2"/><circle cx="568.3" cy="172.8" r="1.2"/><circle cx="577.5" cy="172.8" r="1.2"/><circle cx="586.7" cy="172.8" r="1.2"/><circle cx="605.0" cy="172.8" r="1.2"/><circle cx="614.2" cy="172.8" r="1.2"/><circle cx="623.3" cy="172.8" r="1.2"/><circle cx="632.5" cy="172.8" r="1.2"/><circle cx="650.8" cy="172.8" r="1.2"/><circle cx="660.0" cy="172.8" r="1.2"/><circle cx="669.2" cy="172.8" r="1.2"/><circle cx="678.3" cy="172.8" r="1.2"/><circle cx="687.5" cy="172.8" r="1.2"/><circle cx="696.7" cy="172.8" r="1.2"/><circle cx="705.8" cy="172.8" r="1.2"/><circle cx="715.0" cy="172.8" r="1.2"/><circle cx="724.2" cy="172.8" r="1.2"/><circle cx="733.3" cy="172.8" r="1.2"/><circle cx="742.5" cy="172.8" r="1.2"/><circle cx="751.7" cy="172.8" r="1.2"/><circle cx="760.8" cy="172.8" r="1.2"/><circle cx="770.0" cy="172.8" r="1.2"/><circle cx="779.2" cy="172.8" r="1.2"/><circle cx="788.3" cy="172.8" r="1.2"/><circle cx="797.5" cy="172.8" r="1.2"/><circle cx="806.7" cy="172.8" r="1.2"/><circle cx="815.8" cy="172.8" r="1.2"/><circle cx="825.0" cy="172.8" r="1.2"/><circle cx="834.2" cy="172.8" r="1.2"/><circle cx="192.5" cy="163.6" r="1.2"/><circle cx="201.7" cy="163.6" r="1.2"/><circle cx="210.8" cy="163.6" r="1.2"/><circle cx="220.0" cy="163.6" r="1.2"/><circle cx="229.2" cy="163.6" r="1.2"/><circle cx="238.3" cy="163.6" r="1.2"/><circle cx="247.5" cy="163.6" r="1.2"/><circle cx="256.7" cy="163.6" r="1.2"/><circle cx="265.8" cy="163.6" r="1.2"/><circle cx="476.7" cy="163.6" r="1.2"/><circle cx="485.8" cy="163.6" r="1.2"/><circle cx="495.0" cy="163.6" r="1.2"/><circle cx="504.2" cy="163.6" r="1.2"/><circle cx="513.3" cy="163.6" r="1.2"/><circle cx="522.5" cy="163.6" r="1.2"/><circle cx="531.7" cy="163.6" r="1.2"/><circle cx="540.8" cy="163.6" r="1.2"/><circle cx="559.2" cy="163.6" r="1.2"/><circle cx="568.3" cy="163.6" r="1.2"/><circle cx="577.5" cy="163.6" r="1.2"/><circle cx="586.7" cy="163.6" r="1.2"/><circle cx="595.8" cy="163.6" r="1.2"/><circle cx="605.0" cy="163.6" r="1.2"/><circle cx="614.2" cy="163.6" r="1.2"/><circle cx="623.3" cy="163.6" r="1.2"/><circle cx="632.5" cy="163.6" r="1.2"/><circle cx="641.7" cy="163.6" r="1.2"/><circle cx="650.8" cy="163.6" r="1.2"/><circle cx="660.0" cy="163.6" r="1.2"/><circle cx="669.2" cy="163.6" r="1.2"/><circle cx="678.3" cy="163.6" r="1.2"/><circle cx="687.5" cy="163.6" r="1.2"/><circle cx="696.7" cy="163.6" r="1.2"/><circle cx="705.8" cy="163.6" r="1.2"/><circle cx="715.0" cy="163.6" r="1.2"/><circle cx="724.2" cy="163.6" r="1.2"/><circle cx="733.3" cy="163.6" r="1.2"/><circle cx="742.5" cy="163.6" r="1.2"/><circle cx="751.7" cy="163.6" r="1.2"/><circle cx="760.8" cy="163.6" r="1.2"/><circle cx="770.0" cy="163.6" r="1.2"/><circle cx="779.2" cy="163.6" r="1.2"/><circle cx="788.3" cy="163.6" r="1.2"/><circle cx="797.5" cy="163.6" r="1.2"/><circle cx="806.7" cy="163.6" r="1.2"/><circle cx="815.8" cy="163.6" r="1.2"/><circle cx="825.0" cy="163.6" r="1.2"/><circle cx="834.2" cy="163.6" r="1.2"/><circle cx="174.2" cy="154.4" r="1.2"/><circle cx="183.3" cy="154.4" r="1.2"/><circle cx="192.5" cy="154.4" r="1.2"/><circle cx="201.7" cy="154.4" r="1.2"/><circle cx="210.8" cy="154.4" r="1.2"/><circle cx="220.0" cy="154.4" r="1.2"/><circle cx="229.2" cy="154.4" r="1.2"/><circle cx="238.3" cy="154.4" r="1.2"/><circle cx="247.5" cy="154.4" r="1.2"/><circle cx="256.7" cy="154.4" r="1.2"/><circle cx="265.8" cy="154.4" r="1.2"/><circle cx="275.0" cy="154.4" r="1.2"/><circle cx="284.2" cy="154.4" r="1.2"/><circle cx="485.8" cy="154.4" r="1.2"/><circle cx="495.0" cy="154.4" r="1.2"/><circle cx="504.2" cy="154.4" r="1.2"/><circle cx="513.3" cy="154.4" r="1.2"/><circle cx="522.5" cy="154.4" r="1.2"/><circle cx="605.0" cy="154.4" r="1.2"/><circle cx="614.2" cy="154.4" r="1.2"/><circle cx="623.3" cy="154.4" r="1.2"/><circle cx="632.5" cy="154.4" r="1.2"/><circle cx="641.7" cy="154.4" r="1.2"/><circle cx="650.8" cy="154.4" r="1.2"/><circle cx="660.0" cy="154.4" r="1.2"/><circle cx="669.2" cy="154.4" r="1.2"/><circle cx="678.3" cy="154.4" r="1.2"/><circle cx="687.5" cy="154.4" r="1.2"/><circle cx="696.7" cy="154.4" r="1.2"/><circle cx="705.8" cy="154.4" r="1.2"/><circle cx="715.0" cy="154.4" r="1.2"/><circle cx="724.2" cy="154.4" r="1.2"/><circle cx="733.3" cy="154.4" r="1.2"/><circle cx="742.5" cy="154.4" r="1.2"/><circle cx="751.7" cy="154.4" r="1.2"/><circle cx="760.8" cy="154.4" r="1.2"/><circle cx="770.0" cy="154.4" r="1.2"/><circle cx="779.2" cy="154.4" r="1.2"/><circle cx="788.3" cy="154.4" r="1.2"/><circle cx="797.5" cy="154.4" r="1.2"/><circle cx="806.7" cy="154.4" r="1.2"/><circle cx="815.8" cy="154.4" r="1.2"/><circle cx="825.0" cy="154.4" r="1.2"/><circle cx="870.8" cy="154.4" r="1.2"/><circle cx="880.0" cy="154.4" r="1.2"/><circle cx="165.0" cy="145.3" r="1.2"/><circle cx="174.2" cy="145.3" r="1.2"/><circle cx="183.3" cy="145.3" r="1.2"/><circle cx="192.5" cy="145.3" r="1.2"/><circle cx="201.7" cy="145.3" r="1.2"/><circle cx="210.8" cy="145.3" r="1.2"/><circle cx="220.0" cy="145.3" r="1.2"/><circle cx="229.2" cy="145.3" r="1.2"/><circle cx="238.3" cy="145.3" r="1.2"/><circle cx="247.5" cy="145.3" r="1.2"/><circle cx="256.7" cy="145.3" r="1.2"/><circle cx="265.8" cy="145.3" r="1.2"/><circle cx="275.0" cy="145.3" r="1.2"/><circle cx="284.2" cy="145.3" r="1.2"/><circle cx="476.7" cy="145.3" r="1.2"/><circle cx="485.8" cy="145.3" r="1.2"/><circle cx="495.0" cy="145.3" r="1.2"/><circle cx="540.8" cy="145.3" r="1.2"/><circle cx="559.2" cy="145.3" r="1.2"/><circle cx="577.5" cy="145.3" r="1.2"/><circle cx="586.7" cy="145.3" r="1.2"/><circle cx="595.8" cy="145.3" r="1.2"/><circle cx="605.0" cy="145.3" r="1.2"/><circle cx="614.2" cy="145.3" r="1.2"/><circle cx="623.3" cy="145.3" r="1.2"/><circle cx="632.5" cy="145.3" r="1.2"/><circle cx="650.8" cy="145.3" r="1.2"/><circle cx="660.0" cy="145.3" r="1.2"/><circle cx="669.2" cy="145.3" r="1.2"/><circle cx="678.3" cy="145.3" r="1.2"/><circle cx="687.5" cy="145.3" r="1.2"/><circle cx="696.7" cy="145.3" r="1.2"/><circle cx="705.8" cy="145.3" r="1.2"/><circle cx="715.0" cy="145.3" r="1.2"/><circle cx="724.2" cy="145.3" r="1.2"/><circle cx="733.3" cy="145.3" r="1.2"/><circle cx="742.5" cy="145.3" r="1.2"/><circle cx="751.7" cy="145.3" r="1.2"/><circle cx="760.8" cy="145.3" r="1.2"/><circle cx="770.0" cy="145.3" r="1.2"/><circle cx="779.2" cy="145.3" r="1.2"/><circle cx="788.3" cy="145.3" r="1.2"/><circle cx="797.5" cy="145.3" r="1.2"/><circle cx="806.7" cy="145.3" r="1.2"/><circle cx="815.8" cy="145.3" r="1.2"/><circle cx="825.0" cy="145.3" r="1.2"/><circle cx="852.5" cy="145.3" r="1.2"/><circle cx="889.2" cy="145.3" r="1.2"/><circle cx="155.8" cy="136.1" r="1.2"/><circle cx="165.0" cy="136.1" r="1.2"/><circle cx="174.2" cy="136.1" r="1.2"/><circle cx="183.3" cy="136.1" r="1.2"/><circle cx="192.5" cy="136.1" r="1.2"/><circle cx="201.7" cy="136.1" r="1.2"/><circle cx="210.8" cy="136.1" r="1.2"/><circle cx="220.0" cy="136.1" r="1.2"/><circle cx="229.2" cy="136.1" r="1.2"/><circle cx="238.3" cy="136.1" r="1.2"/><circle cx="247.5" cy="136.1" r="1.2"/><circle cx="256.7" cy="136.1" r="1.2"/><circle cx="265.8" cy="136.1" r="1.2"/><circle cx="275.0" cy="136.1" r="1.2"/><circle cx="284.2" cy="136.1" r="1.2"/><circle cx="293.3" cy="136.1" r="1.2"/><circle cx="476.7" cy="136.1" r="1.2"/><circle cx="485.8" cy="136.1" r="1.2"/><circle cx="495.0" cy="136.1" r="1.2"/><circle cx="540.8" cy="136.1" r="1.2"/><circle cx="559.2" cy="136.1" r="1.2"/><circle cx="568.3" cy="136.1" r="1.2"/><circle cx="586.7" cy="136.1" r="1.2"/><circle cx="595.8" cy="136.1" r="1.2"/><circle cx="605.0" cy="136.1" r="1.2"/><circle cx="614.2" cy="136.1" r="1.2"/><circle cx="623.3" cy="136.1" r="1.2"/><circle cx="632.5" cy="136.1" r="1.2"/><circle cx="660.0" cy="136.1" r="1.2"/><circle cx="669.2" cy="136.1" r="1.2"/><circle cx="678.3" cy="136.1" r="1.2"/><circle cx="687.5" cy="136.1" r="1.2"/><circle cx="696.7" cy="136.1" r="1.2"/><circle cx="705.8" cy="136.1" r="1.2"/><circle cx="715.0" cy="136.1" r="1.2"/><circle cx="724.2" cy="136.1" r="1.2"/><circle cx="733.3" cy="136.1" r="1.2"/><circle cx="742.5" cy="136.1" r="1.2"/><circle cx="751.7" cy="136.1" r="1.2"/><circle cx="760.8" cy="136.1" r="1.2"/><circle cx="770.0" cy="136.1" r="1.2"/><circle cx="779.2" cy="136.1" r="1.2"/><circle cx="788.3" cy="136.1" r="1.2"/><circle cx="797.5" cy="136.1" r="1.2"/><circle cx="806.7" cy="136.1" r="1.2"/><circle cx="815.8" cy="136.1" r="1.2"/><circle cx="825.0" cy="136.1" r="1.2"/><circle cx="834.2" cy="136.1" r="1.2"/><circle cx="843.3" cy="136.1" r="1.2"/><circle cx="852.5" cy="136.1" r="1.2"/><circle cx="155.8" cy="126.9" r="1.2"/><circle cx="165.0" cy="126.9" r="1.2"/><circle cx="174.2" cy="126.9" r="1.2"/><circle cx="183.3" cy="126.9" r="1.2"/><circle cx="192.5" cy="126.9" r="1.2"/><circle cx="201.7" cy="126.9" r="1.2"/><circle cx="210.8" cy="126.9" r="1.2"/><circle cx="220.0" cy="126.9" r="1.2"/><circle cx="229.2" cy="126.9" r="1.2"/><circle cx="238.3" cy="126.9" r="1.2"/><circle cx="247.5" cy="126.9" r="1.2"/><circle cx="256.7" cy="126.9" r="1.2"/><circle cx="265.8" cy="126.9" r="1.2"/><circle cx="275.0" cy="126.9" r="1.2"/><circle cx="284.2" cy="126.9" r="1.2"/><circle cx="293.3" cy="126.9" r="1.2"/><circle cx="302.5" cy="126.9" r="1.2"/><circle cx="320.8" cy="126.9" r="1.2"/><circle cx="504.2" cy="126.9" r="1.2"/><circle cx="513.3" cy="126.9" r="1.2"/><circle cx="522.5" cy="126.9" r="1.2"/><circle cx="531.7" cy="126.9" r="1.2"/><circle cx="550.0" cy="126.9" r="1.2"/><circle cx="559.2" cy="126.9" r="1.2"/><circle cx="568.3" cy="126.9" r="1.2"/><circle cx="577.5" cy="126.9" r="1.2"/><circle cx="614.2" cy="126.9" r="1.2"/><circle cx="623.3" cy="126.9" r="1.2"/><circle cx="641.7" cy="126.9" r="1.2"/><circle cx="650.8" cy="126.9" r="1.2"/><circle cx="660.0" cy="126.9" r="1.2"/><circle cx="669.2" cy="126.9" r="1.2"/><circle cx="678.3" cy="126.9" r="1.2"/><circle cx="687.5" cy="126.9" r="1.2"/><circle cx="696.7" cy="126.9" r="1.2"/><circle cx="705.8" cy="126.9" r="1.2"/><circle cx="715.0" cy="126.9" r="1.2"/><circle cx="724.2" cy="126.9" r="1.2"/><circle cx="733.3" cy="126.9" r="1.2"/><circle cx="742.5" cy="126.9" r="1.2"/><circle cx="751.7" cy="126.9" r="1.2"/><circle cx="760.8" cy="126.9" r="1.2"/><circle cx="770.0" cy="126.9" r="1.2"/><circle cx="779.2" cy="126.9" r="1.2"/><circle cx="788.3" cy="126.9" r="1.2"/><circle cx="797.5" cy="126.9" r="1.2"/><circle cx="806.7" cy="126.9" r="1.2"/><circle cx="815.8" cy="126.9" r="1.2"/><circle cx="825.0" cy="126.9" r="1.2"/><circle cx="834.2" cy="126.9" r="1.2"/><circle cx="843.3" cy="126.9" r="1.2"/><circle cx="852.5" cy="126.9" r="1.2"/><circle cx="861.7" cy="126.9" r="1.2"/><circle cx="870.8" cy="126.9" r="1.2"/><circle cx="898.3" cy="126.9" r="1.2"/><circle cx="155.8" cy="117.8" r="1.2"/><circle cx="165.0" cy="117.8" r="1.2"/><circle cx="174.2" cy="117.8" r="1.2"/><circle cx="183.3" cy="117.8" r="1.2"/><circle cx="192.5" cy="117.8" r="1.2"/><circle cx="201.7" cy="117.8" r="1.2"/><circle cx="210.8" cy="117.8" r="1.2"/><circle cx="220.0" cy="117.8" r="1.2"/><circle cx="229.2" cy="117.8" r="1.2"/><circle cx="238.3" cy="117.8" r="1.2"/><circle cx="247.5" cy="117.8" r="1.2"/><circle cx="256.7" cy="117.8" r="1.2"/><circle cx="265.8" cy="117.8" r="1.2"/><circle cx="275.0" cy="117.8" r="1.2"/><circle cx="284.2" cy="117.8" r="1.2"/><circle cx="293.3" cy="117.8" r="1.2"/><circle cx="302.5" cy="117.8" r="1.2"/><circle cx="311.7" cy="117.8" r="1.2"/><circle cx="339.2" cy="117.8" r="1.2"/><circle cx="348.3" cy="117.8" r="1.2"/><circle cx="495.0" cy="117.8" r="1.2"/><circle cx="504.2" cy="117.8" r="1.2"/><circle cx="513.3" cy="117.8" r="1.2"/><circle cx="522.5" cy="117.8" r="1.2"/><circle cx="531.7" cy="117.8" r="1.2"/><circle cx="540.8" cy="117.8" r="1.2"/><circle cx="550.0" cy="117.8" r="1.2"/><circle cx="559.2" cy="117.8" r="1.2"/><circle cx="568.3" cy="117.8" r="1.2"/><circle cx="577.5" cy="117.8" r="1.2"/><circle cx="586.7" cy="117.8" r="1.2"/><circle cx="595.8" cy="117.8" r="1.2"/><circle cx="605.0" cy="117.8" r="1.2"/><circle cx="614.2" cy="117.8" r="1.2"/><circle cx="623.3" cy="117.8" r="1.2"/><circle cx="632.5" cy="117.8" r="1.2"/><circle cx="641.7" cy="117.8" r="1.2"/><circle cx="650.8" cy="117.8" r="1.2"/><circle cx="660.0" cy="117.8" r="1.2"/><circle cx="669.2" cy="117.8" r="1.2"/><circle cx="678.3" cy="117.8" r="1.2"/><circle cx="687.5" cy="117.8" r="1.2"/><circle cx="696.7" cy="117.8" r="1.2"/><circle cx="705.8" cy="117.8" r="1.2"/><circle cx="715.0" cy="117.8" r="1.2"/><circle cx="724.2" cy="117.8" r="1.2"/><circle cx="733.3" cy="117.8" r="1.2"/><circle cx="742.5" cy="117.8" r="1.2"/><circle cx="751.7" cy="117.8" r="1.2"/><circle cx="760.8" cy="117.8" r="1.2"/><circle cx="770.0" cy="117.8" r="1.2"/><circle cx="779.2" cy="117.8" r="1.2"/><circle cx="788.3" cy="117.8" r="1.2"/><circle cx="797.5" cy="117.8" r="1.2"/><circle cx="806.7" cy="117.8" r="1.2"/><circle cx="815.8" cy="117.8" r="1.2"/><circle cx="825.0" cy="117.8" r="1.2"/><circle cx="834.2" cy="117.8" r="1.2"/><circle cx="843.3" cy="117.8" r="1.2"/><circle cx="852.5" cy="117.8" r="1.2"/><circle cx="861.7" cy="117.8" r="1.2"/><circle cx="870.8" cy="117.8" r="1.2"/><circle cx="880.0" cy="117.8" r="1.2"/><circle cx="146.7" cy="108.6" r="1.2"/><circle cx="155.8" cy="108.6" r="1.2"/><circle cx="165.0" cy="108.6" r="1.2"/><circle cx="174.2" cy="108.6" r="1.2"/><circle cx="183.3" cy="108.6" r="1.2"/><circle cx="192.5" cy="108.6" r="1.2"/><circle cx="201.7" cy="108.6" r="1.2"/><circle cx="210.8" cy="108.6" r="1.2"/><circle cx="220.0" cy="108.6" r="1.2"/><circle cx="229.2" cy="108.6" r="1.2"/><circle cx="238.3" cy="108.6" r="1.2"/><circle cx="247.5" cy="108.6" r="1.2"/><circle cx="256.7" cy="108.6" r="1.2"/><circle cx="265.8" cy="108.6" r="1.2"/><circle cx="275.0" cy="108.6" r="1.2"/><circle cx="284.2" cy="108.6" r="1.2"/><circle cx="293.3" cy="108.6" r="1.2"/><circle cx="302.5" cy="108.6" r="1.2"/><circle cx="311.7" cy="108.6" r="1.2"/><circle cx="320.8" cy="108.6" r="1.2"/><circle cx="330.0" cy="108.6" r="1.2"/><circle cx="495.0" cy="108.6" r="1.2"/><circle cx="513.3" cy="108.6" r="1.2"/><circle cx="522.5" cy="108.6" r="1.2"/><circle cx="531.7" cy="108.6" r="1.2"/><circle cx="540.8" cy="108.6" r="1.2"/><circle cx="550.0" cy="108.6" r="1.2"/><circle cx="559.2" cy="108.6" r="1.2"/><circle cx="568.3" cy="108.6" r="1.2"/><circle cx="577.5" cy="108.6" r="1.2"/><circle cx="586.7" cy="108.6" r="1.2"/><circle cx="595.8" cy="108.6" r="1.2"/><circle cx="605.0" cy="108.6" r="1.2"/><circle cx="614.2" cy="108.6" r="1.2"/><circle cx="623.3" cy="108.6" r="1.2"/><circle cx="632.5" cy="108.6" r="1.2"/><circle cx="641.7" cy="108.6" r="1.2"/><circle cx="650.8" cy="108.6" r="1.2"/><circle cx="660.0" cy="108.6" r="1.2"/><circle cx="669.2" cy="108.6" r="1.2"/><circle cx="678.3" cy="108.6" r="1.2"/><circle cx="687.5" cy="108.6" r="1.2"/><circle cx="696.7" cy="108.6" r="1.2"/><circle cx="705.8" cy="108.6" r="1.2"/><circle cx="715.0" cy="108.6" r="1.2"/><circle cx="724.2" cy="108.6" r="1.2"/><circle cx="733.3" cy="108.6" r="1.2"/><circle cx="742.5" cy="108.6" r="1.2"/><circle cx="751.7" cy="108.6" r="1.2"/><circle cx="760.8" cy="108.6" r="1.2"/><circle cx="770.0" cy="108.6" r="1.2"/><circle cx="779.2" cy="108.6" r="1.2"/><circle cx="788.3" cy="108.6" r="1.2"/><circle cx="797.5" cy="108.6" r="1.2"/><circle cx="806.7" cy="108.6" r="1.2"/><circle cx="815.8" cy="108.6" r="1.2"/><circle cx="825.0" cy="108.6" r="1.2"/><circle cx="834.2" cy="108.6" r="1.2"/><circle cx="843.3" cy="108.6" r="1.2"/><circle cx="852.5" cy="108.6" r="1.2"/><circle cx="861.7" cy="108.6" r="1.2"/><circle cx="870.8" cy="108.6" r="1.2"/><circle cx="880.0" cy="108.6" r="1.2"/><circle cx="889.2" cy="108.6" r="1.2"/><circle cx="898.3" cy="108.6" r="1.2"/><circle cx="146.7" cy="99.4" r="1.2"/><circle cx="155.8" cy="99.4" r="1.2"/><circle cx="165.0" cy="99.4" r="1.2"/><circle cx="174.2" cy="99.4" r="1.2"/><circle cx="183.3" cy="99.4" r="1.2"/><circle cx="192.5" cy="99.4" r="1.2"/><circle cx="201.7" cy="99.4" r="1.2"/><circle cx="210.8" cy="99.4" r="1.2"/><circle cx="220.0" cy="99.4" r="1.2"/><circle cx="229.2" cy="99.4" r="1.2"/><circle cx="238.3" cy="99.4" r="1.2"/><circle cx="247.5" cy="99.4" r="1.2"/><circle cx="256.7" cy="99.4" r="1.2"/><circle cx="265.8" cy="99.4" r="1.2"/><circle cx="284.2" cy="99.4" r="1.2"/><circle cx="293.3" cy="99.4" r="1.2"/><circle cx="302.5" cy="99.4" r="1.2"/><circle cx="311.7" cy="99.4" r="1.2"/><circle cx="320.8" cy="99.4" r="1.2"/><circle cx="330.0" cy="99.4" r="1.2"/><circle cx="339.2" cy="99.4" r="1.2"/><circle cx="476.7" cy="99.4" r="1.2"/><circle cx="495.0" cy="99.4" r="1.2"/><circle cx="550.0" cy="99.4" r="1.2"/><circle cx="559.2" cy="99.4" r="1.2"/><circle cx="568.3" cy="99.4" r="1.2"/><circle cx="577.5" cy="99.4" r="1.2"/><circle cx="586.7" cy="99.4" r="1.2"/><circle cx="595.8" cy="99.4" r="1.2"/><circle cx="605.0" cy="99.4" r="1.2"/><circle cx="614.2" cy="99.4" r="1.2"/><circle cx="623.3" cy="99.4" r="1.2"/><circle cx="632.5" cy="99.4" r="1.2"/><circle cx="641.7" cy="99.4" r="1.2"/><circle cx="650.8" cy="99.4" r="1.2"/><circle cx="660.0" cy="99.4" r="1.2"/><circle cx="669.2" cy="99.4" r="1.2"/><circle cx="678.3" cy="99.4" r="1.2"/><circle cx="687.5" cy="99.4" r="1.2"/><circle cx="696.7" cy="99.4" r="1.2"/><circle cx="705.8" cy="99.4" r="1.2"/><circle cx="715.0" cy="99.4" r="1.2"/><circle cx="724.2" cy="99.4" r="1.2"/><circle cx="733.3" cy="99.4" r="1.2"/><circle cx="742.5" cy="99.4" r="1.2"/><circle cx="751.7" cy="99.4" r="1.2"/><circle cx="760.8" cy="99.4" r="1.2"/><circle cx="770.0" cy="99.4" r="1.2"/><circle cx="779.2" cy="99.4" r="1.2"/><circle cx="788.3" cy="99.4" r="1.2"/><circle cx="797.5" cy="99.4" r="1.2"/><circle cx="806.7" cy="99.4" r="1.2"/><circle cx="815.8" cy="99.4" r="1.2"/><circle cx="825.0" cy="99.4" r="1.2"/><circle cx="834.2" cy="99.4" r="1.2"/><circle cx="843.3" cy="99.4" r="1.2"/><circle cx="852.5" cy="99.4" r="1.2"/><circle cx="861.7" cy="99.4" r="1.2"/><circle cx="870.8" cy="99.4" r="1.2"/><circle cx="880.0" cy="99.4" r="1.2"/><circle cx="935.0" cy="99.4" r="1.2"/><circle cx="944.2" cy="99.4" r="1.2"/><circle cx="64.2" cy="90.3" r="1.2"/><circle cx="73.3" cy="90.3" r="1.2"/><circle cx="137.5" cy="90.3" r="1.2"/><circle cx="146.7" cy="90.3" r="1.2"/><circle cx="155.8" cy="90.3" r="1.2"/><circle cx="165.0" cy="90.3" r="1.2"/><circle cx="174.2" cy="90.3" r="1.2"/><circle cx="183.3" cy="90.3" r="1.2"/><circle cx="192.5" cy="90.3" r="1.2"/><circle cx="201.7" cy="90.3" r="1.2"/><circle cx="210.8" cy="90.3" r="1.2"/><circle cx="220.0" cy="90.3" r="1.2"/><circle cx="229.2" cy="90.3" r="1.2"/><circle cx="238.3" cy="90.3" r="1.2"/><circle cx="293.3" cy="90.3" r="1.2"/><circle cx="302.5" cy="90.3" r="1.2"/><circle cx="311.7" cy="90.3" r="1.2"/><circle cx="320.8" cy="90.3" r="1.2"/><circle cx="485.8" cy="90.3" r="1.2"/><circle cx="540.8" cy="90.3" r="1.2"/><circle cx="568.3" cy="90.3" r="1.2"/><circle cx="577.5" cy="90.3" r="1.2"/><circle cx="586.7" cy="90.3" r="1.2"/><circle cx="595.8" cy="90.3" r="1.2"/><circle cx="605.0" cy="90.3" r="1.2"/><circle cx="614.2" cy="90.3" r="1.2"/><circle cx="623.3" cy="90.3" r="1.2"/><circle cx="632.5" cy="90.3" r="1.2"/><circle cx="641.7" cy="90.3" r="1.2"/><circle cx="650.8" cy="90.3" r="1.2"/><circle cx="660.0" cy="90.3" r="1.2"/><circle cx="669.2" cy="90.3" r="1.2"/><circle cx="678.3" cy="90.3" r="1.2"/><circle cx="687.5" cy="90.3" r="1.2"/><circle cx="696.7" cy="90.3" r="1.2"/><circle cx="705.8" cy="90.3" r="1.2"/><circle cx="715.0" cy="90.3" r="1.2"/><circle cx="724.2" cy="90.3" r="1.2"/><circle cx="733.3" cy="90.3" r="1.2"/><circle cx="742.5" cy="90.3" r="1.2"/><circle cx="751.7" cy="90.3" r="1.2"/><circle cx="760.8" cy="90.3" r="1.2"/><circle cx="770.0" cy="90.3" r="1.2"/><circle cx="779.2" cy="90.3" r="1.2"/><circle cx="788.3" cy="90.3" r="1.2"/><circle cx="797.5" cy="90.3" r="1.2"/><circle cx="806.7" cy="90.3" r="1.2"/><circle cx="815.8" cy="90.3" r="1.2"/><circle cx="825.0" cy="90.3" r="1.2"/><circle cx="834.2" cy="90.3" r="1.2"/><circle cx="843.3" cy="90.3" r="1.2"/><circle cx="852.5" cy="90.3" r="1.2"/><circle cx="861.7" cy="90.3" r="1.2"/><circle cx="870.8" cy="90.3" r="1.2"/><circle cx="880.0" cy="90.3" r="1.2"/><circle cx="944.2" cy="90.3" r="1.2"/><circle cx="45.8" cy="81.1" r="1.2"/><circle cx="55.0" cy="81.1" r="1.2"/><circle cx="64.2" cy="81.1" r="1.2"/><circle cx="73.3" cy="81.1" r="1.2"/><circle cx="82.5" cy="81.1" r="1.2"/><circle cx="100.8" cy="81.1" r="1.2"/><circle cx="110.0" cy="81.1" r="1.2"/><circle cx="119.2" cy="81.1" r="1.2"/><circle cx="128.3" cy="81.1" r="1.2"/><circle cx="137.5" cy="81.1" r="1.2"/><circle cx="146.7" cy="81.1" r="1.2"/><circle cx="155.8" cy="81.1" r="1.2"/><circle cx="165.0" cy="81.1" r="1.2"/><circle cx="174.2" cy="81.1" r="1.2"/><circle cx="183.3" cy="81.1" r="1.2"/><circle cx="192.5" cy="81.1" r="1.2"/><circle cx="201.7" cy="81.1" r="1.2"/><circle cx="210.8" cy="81.1" r="1.2"/><circle cx="220.0" cy="81.1" r="1.2"/><circle cx="229.2" cy="81.1" r="1.2"/><circle cx="284.2" cy="81.1" r="1.2"/><circle cx="293.3" cy="81.1" r="1.2"/><circle cx="302.5" cy="81.1" r="1.2"/><circle cx="375.8" cy="81.1" r="1.2"/><circle cx="522.5" cy="81.1" r="1.2"/><circle cx="531.7" cy="81.1" r="1.2"/><circle cx="540.8" cy="81.1" r="1.2"/><circle cx="568.3" cy="81.1" r="1.2"/><circle cx="577.5" cy="81.1" r="1.2"/><circle cx="586.7" cy="81.1" r="1.2"/><circle cx="595.8" cy="81.1" r="1.2"/><circle cx="605.0" cy="81.1" r="1.2"/><circle cx="614.2" cy="81.1" r="1.2"/><circle cx="623.3" cy="81.1" r="1.2"/><circle cx="632.5" cy="81.1" r="1.2"/><circle cx="641.7" cy="81.1" r="1.2"/><circle cx="650.8" cy="81.1" r="1.2"/><circle cx="660.0" cy="81.1" r="1.2"/><circle cx="669.2" cy="81.1" r="1.2"/><circle cx="678.3" cy="81.1" r="1.2"/><circle cx="687.5" cy="81.1" r="1.2"/><circle cx="696.7" cy="81.1" r="1.2"/><circle cx="705.8" cy="81.1" r="1.2"/><circle cx="715.0" cy="81.1" r="1.2"/><circle cx="724.2" cy="81.1" r="1.2"/><circle cx="733.3" cy="81.1" r="1.2"/><circle cx="742.5" cy="81.1" r="1.2"/><circle cx="751.7" cy="81.1" r="1.2"/><circle cx="760.8" cy="81.1" r="1.2"/><circle cx="770.0" cy="81.1" r="1.2"/><circle cx="779.2" cy="81.1" r="1.2"/><circle cx="788.3" cy="81.1" r="1.2"/><circle cx="797.5" cy="81.1" r="1.2"/><circle cx="806.7" cy="81.1" r="1.2"/><circle cx="815.8" cy="81.1" r="1.2"/><circle cx="825.0" cy="81.1" r="1.2"/><circle cx="834.2" cy="81.1" r="1.2"/><circle cx="843.3" cy="81.1" r="1.2"/><circle cx="852.5" cy="81.1" r="1.2"/><circle cx="861.7" cy="81.1" r="1.2"/><circle cx="870.8" cy="81.1" r="1.2"/><circle cx="880.0" cy="81.1" r="1.2"/><circle cx="889.2" cy="81.1" r="1.2"/><circle cx="898.3" cy="81.1" r="1.2"/><circle cx="907.5" cy="81.1" r="1.2"/><circle cx="916.7" cy="81.1" r="1.2"/><circle cx="925.8" cy="81.1" r="1.2"/><circle cx="953.3" cy="81.1" r="1.2"/><circle cx="962.5" cy="81.1" r="1.2"/><circle cx="971.7" cy="81.1" r="1.2"/><circle cx="55.0" cy="71.9" r="1.2"/><circle cx="64.2" cy="71.9" r="1.2"/><circle cx="73.3" cy="71.9" r="1.2"/><circle cx="82.5" cy="71.9" r="1.2"/><circle cx="91.7" cy="71.9" r="1.2"/><circle cx="100.8" cy="71.9" r="1.2"/><circle cx="110.0" cy="71.9" r="1.2"/><circle cx="119.2" cy="71.9" r="1.2"/><circle cx="128.3" cy="71.9" r="1.2"/><circle cx="137.5" cy="71.9" r="1.2"/><circle cx="146.7" cy="71.9" r="1.2"/><circle cx="155.8" cy="71.9" r="1.2"/><circle cx="165.0" cy="71.9" r="1.2"/><circle cx="174.2" cy="71.9" r="1.2"/><circle cx="183.3" cy="71.9" r="1.2"/><circle cx="192.5" cy="71.9" r="1.2"/><circle cx="201.7" cy="71.9" r="1.2"/><circle cx="210.8" cy="71.9" r="1.2"/><circle cx="220.0" cy="71.9" r="1.2"/><circle cx="229.2" cy="71.9" r="1.2"/><circle cx="238.3" cy="71.9" r="1.2"/><circle cx="247.5" cy="71.9" r="1.2"/><circle cx="265.8" cy="71.9" r="1.2"/><circle cx="302.5" cy="71.9" r="1.2"/><circle cx="311.7" cy="71.9" r="1.2"/><circle cx="357.5" cy="71.9" r="1.2"/><circle cx="366.7" cy="71.9" r="1.2"/><circle cx="375.8" cy="71.9" r="1.2"/><circle cx="385.0" cy="71.9" r="1.2"/><circle cx="440.0" cy="71.9" r="1.2"/><circle cx="449.2" cy="71.9" r="1.2"/><circle cx="531.7" cy="71.9" r="1.2"/><circle cx="540.8" cy="71.9" r="1.2"/><circle cx="550.0" cy="71.9" r="1.2"/><circle cx="568.3" cy="71.9" r="1.2"/><circle cx="577.5" cy="71.9" r="1.2"/><circle cx="586.7" cy="71.9" r="1.2"/><circle cx="595.8" cy="71.9" r="1.2"/><circle cx="605.0" cy="71.9" r="1.2"/><circle cx="614.2" cy="71.9" r="1.2"/><circle cx="623.3" cy="71.9" r="1.2"/><circle cx="632.5" cy="71.9" r="1.2"/><circle cx="641.7" cy="71.9" r="1.2"/><circle cx="650.8" cy="71.9" r="1.2"/><circle cx="660.0" cy="71.9" r="1.2"/><circle cx="669.2" cy="71.9" r="1.2"/><circle cx="678.3" cy="71.9" r="1.2"/><circle cx="687.5" cy="71.9" r="1.2"/><circle cx="696.7" cy="71.9" r="1.2"/><circle cx="705.8" cy="71.9" r="1.2"/><circle cx="715.0" cy="71.9" r="1.2"/><circle cx="724.2" cy="71.9" r="1.2"/><circle cx="733.3" cy="71.9" r="1.2"/><circle cx="742.5" cy="71.9" r="1.2"/><circle cx="751.7" cy="71.9" r="1.2"/><circle cx="760.8" cy="71.9" r="1.2"/><circle cx="770.0" cy="71.9" r="1.2"/><circle cx="779.2" cy="71.9" r="1.2"/><circle cx="788.3" cy="71.9" r="1.2"/><circle cx="797.5" cy="71.9" r="1.2"/><circle cx="806.7" cy="71.9" r="1.2"/><circle cx="815.8" cy="71.9" r="1.2"/><circle cx="825.0" cy="71.9" r="1.2"/><circle cx="834.2" cy="71.9" r="1.2"/><circle cx="843.3" cy="71.9" r="1.2"/><circle cx="852.5" cy="71.9" r="1.2"/><circle cx="861.7" cy="71.9" r="1.2"/><circle cx="870.8" cy="71.9" r="1.2"/><circle cx="880.0" cy="71.9" r="1.2"/><circle cx="889.2" cy="71.9" r="1.2"/><circle cx="898.3" cy="71.9" r="1.2"/><circle cx="907.5" cy="71.9" r="1.2"/><circle cx="916.7" cy="71.9" r="1.2"/><circle cx="925.8" cy="71.9" r="1.2"/><circle cx="935.0" cy="71.9" r="1.2"/><circle cx="944.2" cy="71.9" r="1.2"/><circle cx="953.3" cy="71.9" r="1.2"/><circle cx="962.5" cy="71.9" r="1.2"/><circle cx="971.7" cy="71.9" r="1.2"/><circle cx="980.8" cy="71.9" r="1.2"/><circle cx="990.0" cy="71.9" r="1.2"/><circle cx="0.0" cy="62.8" r="1.2"/><circle cx="9.2" cy="62.8" r="1.2"/><circle cx="45.8" cy="62.8" r="1.2"/><circle cx="55.0" cy="62.8" r="1.2"/><circle cx="64.2" cy="62.8" r="1.2"/><circle cx="73.3" cy="62.8" r="1.2"/><circle cx="82.5" cy="62.8" r="1.2"/><circle cx="91.7" cy="62.8" r="1.2"/><circle cx="100.8" cy="62.8" r="1.2"/><circle cx="110.0" cy="62.8" r="1.2"/><circle cx="119.2" cy="62.8" r="1.2"/><circle cx="128.3" cy="62.8" r="1.2"/><circle cx="137.5" cy="62.8" r="1.2"/><circle cx="146.7" cy="62.8" r="1.2"/><circle cx="155.8" cy="62.8" r="1.2"/><circle cx="165.0" cy="62.8" r="1.2"/><circle cx="174.2" cy="62.8" r="1.2"/><circle cx="183.3" cy="62.8" r="1.2"/><circle cx="192.5" cy="62.8" r="1.2"/><circle cx="201.7" cy="62.8" r="1.2"/><circle cx="210.8" cy="62.8" r="1.2"/><circle cx="220.0" cy="62.8" r="1.2"/><circle cx="229.2" cy="62.8" r="1.2"/><circle cx="238.3" cy="62.8" r="1.2"/><circle cx="247.5" cy="62.8" r="1.2"/><circle cx="265.8" cy="62.8" r="1.2"/><circle cx="302.5" cy="62.8" r="1.2"/><circle cx="311.7" cy="62.8" r="1.2"/><circle cx="320.8" cy="62.8" r="1.2"/><circle cx="357.5" cy="62.8" r="1.2"/><circle cx="366.7" cy="62.8" r="1.2"/><circle cx="375.8" cy="62.8" r="1.2"/><circle cx="385.0" cy="62.8" r="1.2"/><circle cx="394.2" cy="62.8" r="1.2"/><circle cx="403.3" cy="62.8" r="1.2"/><circle cx="540.8" cy="62.8" r="1.2"/><circle cx="550.0" cy="62.8" r="1.2"/><circle cx="559.2" cy="62.8" r="1.2"/><circle cx="568.3" cy="62.8" r="1.2"/><circle cx="577.5" cy="62.8" r="1.2"/><circle cx="586.7" cy="62.8" r="1.2"/><circle cx="595.8" cy="62.8" r="1.2"/><circle cx="605.0" cy="62.8" r="1.2"/><circle cx="623.3" cy="62.8" r="1.2"/><circle cx="641.7" cy="62.8" r="1.2"/><circle cx="650.8" cy="62.8" r="1.2"/><circle cx="660.0" cy="62.8" r="1.2"/><circle cx="669.2" cy="62.8" r="1.2"/><circle cx="678.3" cy="62.8" r="1.2"/><circle cx="687.5" cy="62.8" r="1.2"/><circle cx="696.7" cy="62.8" r="1.2"/><circle cx="715.0" cy="62.8" r="1.2"/><circle cx="724.2" cy="62.8" r="1.2"/><circle cx="733.3" cy="62.8" r="1.2"/><circle cx="742.5" cy="62.8" r="1.2"/><circle cx="751.7" cy="62.8" r="1.2"/><circle cx="760.8" cy="62.8" r="1.2"/><circle cx="770.0" cy="62.8" r="1.2"/><circle cx="779.2" cy="62.8" r="1.2"/><circle cx="788.3" cy="62.8" r="1.2"/><circle cx="797.5" cy="62.8" r="1.2"/><circle cx="806.7" cy="62.8" r="1.2"/><circle cx="815.8" cy="62.8" r="1.2"/><circle cx="825.0" cy="62.8" r="1.2"/><circle cx="834.2" cy="62.8" r="1.2"/><circle cx="843.3" cy="62.8" r="1.2"/><circle cx="852.5" cy="62.8" r="1.2"/><circle cx="861.7" cy="62.8" r="1.2"/><circle cx="870.8" cy="62.8" r="1.2"/><circle cx="880.0" cy="62.8" r="1.2"/><circle cx="889.2" cy="62.8" r="1.2"/><circle cx="898.3" cy="62.8" r="1.2"/><circle cx="907.5" cy="62.8" r="1.2"/><circle cx="916.7" cy="62.8" r="1.2"/><circle cx="925.8" cy="62.8" r="1.2"/><circle cx="935.0" cy="62.8" r="1.2"/><circle cx="944.2" cy="62.8" r="1.2"/><circle cx="953.3" cy="62.8" r="1.2"/><circle cx="962.5" cy="62.8" r="1.2"/><circle cx="971.7" cy="62.8" r="1.2"/><circle cx="980.8" cy="62.8" r="1.2"/><circle cx="990.0" cy="62.8" r="1.2"/><circle cx="999.2" cy="62.8" r="1.2"/><circle cx="64.2" cy="53.6" r="1.2"/><circle cx="73.3" cy="53.6" r="1.2"/><circle cx="174.2" cy="53.6" r="1.2"/><circle cx="183.3" cy="53.6" r="1.2"/><circle cx="192.5" cy="53.6" r="1.2"/><circle cx="201.7" cy="53.6" r="1.2"/><circle cx="210.8" cy="53.6" r="1.2"/><circle cx="238.3" cy="53.6" r="1.2"/><circle cx="256.7" cy="53.6" r="1.2"/><circle cx="265.8" cy="53.6" r="1.2"/><circle cx="275.0" cy="53.6" r="1.2"/><circle cx="284.2" cy="53.6" r="1.2"/><circle cx="293.3" cy="53.6" r="1.2"/><circle cx="302.5" cy="53.6" r="1.2"/><circle cx="357.5" cy="53.6" r="1.2"/><circle cx="366.7" cy="53.6" r="1.2"/><circle cx="375.8" cy="53.6" r="1.2"/><circle cx="385.0" cy="53.6" r="1.2"/><circle cx="394.2" cy="53.6" r="1.2"/><circle cx="403.3" cy="53.6" r="1.2"/><circle cx="412.5" cy="53.6" r="1.2"/><circle cx="421.7" cy="53.6" r="1.2"/><circle cx="568.3" cy="53.6" r="1.2"/><circle cx="577.5" cy="53.6" r="1.2"/><circle cx="687.5" cy="53.6" r="1.2"/><circle cx="696.7" cy="53.6" r="1.2"/><circle cx="715.0" cy="53.6" r="1.2"/><circle cx="724.2" cy="53.6" r="1.2"/><circle cx="733.3" cy="53.6" r="1.2"/><circle cx="742.5" cy="53.6" r="1.2"/><circle cx="751.7" cy="53.6" r="1.2"/><circle cx="760.8" cy="53.6" r="1.2"/><circle cx="770.0" cy="53.6" r="1.2"/><circle cx="779.2" cy="53.6" r="1.2"/><circle cx="788.3" cy="53.6" r="1.2"/><circle cx="797.5" cy="53.6" r="1.2"/><circle cx="806.7" cy="53.6" r="1.2"/><circle cx="815.8" cy="53.6" r="1.2"/><circle cx="825.0" cy="53.6" r="1.2"/><circle cx="834.2" cy="53.6" r="1.2"/><circle cx="843.3" cy="53.6" r="1.2"/><circle cx="852.5" cy="53.6" r="1.2"/><circle cx="861.7" cy="53.6" r="1.2"/><circle cx="870.8" cy="53.6" r="1.2"/><circle cx="880.0" cy="53.6" r="1.2"/><circle cx="889.2" cy="53.6" r="1.2"/><circle cx="898.3" cy="53.6" r="1.2"/><circle cx="907.5" cy="53.6" r="1.2"/><circle cx="916.7" cy="53.6" r="1.2"/><circle cx="925.8" cy="53.6" r="1.2"/><circle cx="935.0" cy="53.6" r="1.2"/><circle cx="155.8" cy="44.4" r="1.2"/><circle cx="165.0" cy="44.4" r="1.2"/><circle cx="174.2" cy="44.4" r="1.2"/><circle cx="238.3" cy="44.4" r="1.2"/><circle cx="348.3" cy="44.4" r="1.2"/><circle cx="357.5" cy="44.4" r="1.2"/><circle cx="366.7" cy="44.4" r="1.2"/><circle cx="375.8" cy="44.4" r="1.2"/><circle cx="385.0" cy="44.4" r="1.2"/><circle cx="394.2" cy="44.4" r="1.2"/><circle cx="403.3" cy="44.4" r="1.2"/><circle cx="412.5" cy="44.4" r="1.2"/><circle cx="421.7" cy="44.4" r="1.2"/><circle cx="430.8" cy="44.4" r="1.2"/><circle cx="440.0" cy="44.4" r="1.2"/><circle cx="650.8" cy="44.4" r="1.2"/><circle cx="660.0" cy="44.4" r="1.2"/><circle cx="742.5" cy="44.4" r="1.2"/><circle cx="751.7" cy="44.4" r="1.2"/><circle cx="760.8" cy="44.4" r="1.2"/><circle cx="770.0" cy="44.4" r="1.2"/><circle cx="779.2" cy="44.4" r="1.2"/><circle cx="788.3" cy="44.4" r="1.2"/><circle cx="797.5" cy="44.4" r="1.2"/><circle cx="806.7" cy="44.4" r="1.2"/><circle cx="174.2" cy="35.3" r="1.2"/><circle cx="256.7" cy="35.3" r="1.2"/><circle cx="265.8" cy="35.3" r="1.2"/><circle cx="275.0" cy="35.3" r="1.2"/><circle cx="311.7" cy="35.3" r="1.2"/><circle cx="320.8" cy="35.3" r="1.2"/><circle cx="330.0" cy="35.3" r="1.2"/><circle cx="339.2" cy="35.3" r="1.2"/><circle cx="348.3" cy="35.3" r="1.2"/><circle cx="357.5" cy="35.3" r="1.2"/><circle cx="366.7" cy="35.3" r="1.2"/><circle cx="375.8" cy="35.3" r="1.2"/><circle cx="385.0" cy="35.3" r="1.2"/><circle cx="394.2" cy="35.3" r="1.2"/><circle cx="403.3" cy="35.3" r="1.2"/><circle cx="412.5" cy="35.3" r="1.2"/><circle cx="421.7" cy="35.3" r="1.2"/><circle cx="430.8" cy="35.3" r="1.2"/><circle cx="440.0" cy="35.3" r="1.2"/><circle cx="540.8" cy="35.3" r="1.2"/><circle cx="788.3" cy="35.3" r="1.2"/></svg>